<svg xmlns="http://www.w3.org/2000/svg" version="1.1" xmlns:xlink="http://www.w3.org/1999/xlink" xmlns:svgjs="http://svgjs.dev/svgjs" width="1000" height="1438" viewBox="0 0 1000 1438"><g transform="matrix(1,0,0,1,1.979591836734869,-2.03461702127629)"><svg viewBox="0 0 98 141" data-background-color="#333366" preserveAspectRatio="xMidYMid meet" height="1438" width="1000" xmlns="http://www.w3.org/2000/svg" xmlns:xlink="http://www.w3.org/1999/xlink"><g id="tight-bounds" transform="matrix(1,0,0,1,-0.19400000000001683,0.19949999999997203)"><svg viewBox="0 0 98.38758619565218 140.60052000000002" height="140.60052000000002" width="98.38758619565218"><g><svg viewBox="0 0 98.38758619565218 140.60052000000002" height="140.60052000000002" width="98.38758619565218"><g><svg viewBox="0 0 98.38758619565218 140.60052000000002" height="140.60052000000002" width="98.38758619565218"><g><path d="M0 140.601v-140.601h98.388v140.601z" fill="#ffff33" stroke="transparent" stroke-width="0" rx="0%" data-fill-palette-color="tertiary"></path><path d="M3.283 137.317v-134.034h91.821v134.034z" fill="#333366" stroke="transparent" stroke-width="0" rx="0%" data-fill-palette-color="quaternary"></path><path d="M9.85 130.751v-120.901h78.688v120.901z" fill="#ffff33" stroke="transparent" stroke-width="0" data-fill-palette-color="tertiary"></path></g><g transform="matrix(1,0,0,1,19.699739999999995,19.69974)" id="textblocktransform"><svg viewBox="0 0 58.988106195652186 101.20104000000002" height="101.20104000000002" width="58.988106195652186" id="textblock"><g><svg viewBox="0 0 58.988106195652186 101.20104000000002" height="101.20104000000002" width="58.988106195652186"><g transform="matrix(1,0,0,1,0,0)"><svg width="58.988106195652186" viewBox="3.8499999046325684 -36.79999923706055 21.44999885559082 36.79999923706055" height="101.20104000000002" data-palette-color="#333366"><path d="M25.3 0L11.25 0Q9.1 0 7.43-0.68 5.75-1.35 4.8-2.98 3.85-4.6 3.85-7.4L3.85-7.4 3.85-36.8 7.85-36.8 7.85-7.95Q7.85-6.15 8.45-5.23 9.05-4.3 10.05-3.98 11.05-3.65 12.1-3.65L12.1-3.65 25.3-3.65 25.3 0Z" opacity="1" transform="matrix(1,0,0,1,0,0)" fill="#333366" class="wordmark-text-0" data-fill-palette-color="quaternary" id="text-0"></path></svg></g></svg></g></svg></g></svg></g><g></g></svg></g><defs></defs></svg><rect width="98.38758619565218" height="140.60052000000002" fill="none" stroke="none" visibility="hidden"></rect></g></svg></g></svg>